<svg width="875" height="272" viewBox="0 0 875 272" fill="none" xmlns="http://www.w3.org/2000/svg">
<g clip-path="url(#clip0_1910_26834)">
<path d="M388.183 232L367.583 204.6C363.583 206.2 359.249 207.4 354.583 208.2C349.916 209.133 345.183 209.6 340.383 209.6C325.716 209.6 313.249 206.533 302.983 200.4C292.716 194.267 284.849 185.733 279.383 174.8C274.049 163.867 271.383 151.4 271.383 137.4C271.383 123.267 274.049 110.733 279.383 99.8C284.849 88.8667 292.716 80.3333 302.983 74.2C313.383 67.9333 325.849 64.8 340.383 64.8C355.049 64.8 367.449 67.8667 377.583 74C387.849 80 395.649 88.4667 400.983 99.4C406.449 110.2 409.183 122.733 409.183 137C409.183 148.6 407.316 158.933 403.583 168C399.983 176.933 394.716 184.6 387.783 191L407.383 217.4L388.183 232ZM339.983 186.4C350.249 186.4 358.583 184.067 364.983 179.4C371.516 174.733 376.249 168.667 379.183 161.2C382.249 153.6 383.783 145.533 383.783 137C383.783 128.467 382.249 120.467 379.183 113C376.116 105.533 371.383 99.5333 364.983 95C358.716 90.3333 350.516 88 340.383 88C330.383 88 322.116 90.3333 315.583 95C309.183 99.6667 304.449 105.8 301.383 113.4C298.316 120.867 296.783 128.933 296.783 137.6C296.783 146 298.249 153.933 301.183 161.4C304.249 168.867 308.983 174.933 315.383 179.6C321.783 184.133 329.983 186.4 339.983 186.4ZM475.494 209.4C460.294 209.4 448.627 205.467 440.494 197.6C432.494 189.733 428.494 177.733 428.494 161.6V102.6H452.894V160C452.894 165.6 453.627 170.467 455.094 174.6C456.694 178.733 459.16 181.933 462.494 184.2C465.96 186.333 470.294 187.4 475.494 187.4C481.094 187.4 485.494 186.267 488.694 184C492.027 181.6 494.36 178.333 495.694 174.2C497.027 170.067 497.694 165.333 497.694 160V102.6H522.094V161.6C522.094 178.133 517.96 190.267 509.694 198C501.56 205.6 490.16 209.4 475.494 209.4ZM593.5 209.4C582.7 209.4 573.367 207.2 565.5 202.8C557.767 198.4 551.767 192.133 547.5 184C543.367 175.867 541.3 166.333 541.3 155.4C541.3 144.333 543.433 134.8 547.7 126.8C551.967 118.667 557.967 112.333 565.7 107.8C573.433 103.267 582.7 101 593.5 101C604.167 101 613.367 103.267 621.1 107.8C628.833 112.333 634.767 118.733 638.9 127C643.033 135.133 645.1 144.733 645.1 155.8C645.1 166.6 643.033 176.067 638.9 184.2C634.9 192.2 629.033 198.4 621.3 202.8C613.567 207.2 604.3 209.4 593.5 209.4ZM593.3 187.2C599.967 187.2 605.3 185.733 609.3 182.8C613.433 179.867 616.433 176 618.3 171.2C620.167 166.4 621.1 161.2 621.1 155.6C621.1 150 620.167 144.733 618.3 139.8C616.433 134.867 613.433 130.933 609.3 128C605.3 124.933 599.967 123.4 593.3 123.4C586.633 123.4 581.233 124.933 577.1 128C572.967 130.933 569.967 134.867 568.1 139.8C566.233 144.6 565.3 149.867 565.3 155.6C565.3 161.2 566.233 166.467 568.1 171.4C570.1 176.2 573.1 180.067 577.1 183C581.233 185.8 586.633 187.2 593.3 187.2ZM710.636 208C702.103 208 695.036 206.867 689.436 204.6C683.969 202.333 679.836 198.667 677.036 193.6C674.369 188.533 673.036 181.733 673.036 173.2V124.2H656.836V102.6H673.036V73.2H697.436V102.6H722.036V124.2H697.436V170C697.436 175.333 698.369 179.4 700.236 182.2C702.103 185 706.303 186.4 712.836 186.4H721.236V208H710.636ZM738.269 208V102.6H760.469L761.869 116.4C764.535 112.4 767.535 109.333 770.869 107.2C774.335 104.933 778.002 103.333 781.869 102.4C785.869 101.467 789.869 101 793.869 101C795.335 101 796.669 101 797.869 101C799.202 101 800.269 101.067 801.069 101.2V124.4H794.669C787.735 124.4 781.869 125.733 777.069 128.4C772.269 131.067 768.669 134.867 766.269 139.8C763.869 144.733 762.669 150.8 762.669 158V208H738.269Z" fill="#1D1D1F"/>
<path d="M388.183 232L367.583 204.6C363.583 206.2 359.249 207.4 354.583 208.2C349.916 209.133 345.183 209.6 340.383 209.6C325.716 209.6 313.249 206.533 302.983 200.4C292.716 194.267 284.849 185.733 279.383 174.8C274.049 163.867 271.383 151.4 271.383 137.4C271.383 123.267 274.049 110.733 279.383 99.8C284.849 88.8667 292.716 80.3333 302.983 74.2C313.383 67.9333 325.849 64.8 340.383 64.8C355.049 64.8 367.449 67.8667 377.583 74C387.849 80 395.649 88.4667 400.983 99.4C406.449 110.2 409.183 122.733 409.183 137C409.183 148.6 407.316 158.933 403.583 168C399.983 176.933 394.716 184.6 387.783 191L407.383 217.4L388.183 232ZM339.983 186.4C350.249 186.4 358.583 184.067 364.983 179.4C371.516 174.733 376.249 168.667 379.183 161.2C382.249 153.6 383.783 145.533 383.783 137C383.783 128.467 382.249 120.467 379.183 113C376.116 105.533 371.383 99.5333 364.983 95C358.716 90.3333 350.516 88 340.383 88C330.383 88 322.116 90.3333 315.583 95C309.183 99.6667 304.449 105.8 301.383 113.4C298.316 120.867 296.783 128.933 296.783 137.6C296.783 146 298.249 153.933 301.183 161.4C304.249 168.867 308.983 174.933 315.383 179.6C321.783 184.133 329.983 186.4 339.983 186.4ZM475.494 209.4C460.294 209.4 448.627 205.467 440.494 197.6C432.494 189.733 428.494 177.733 428.494 161.6V102.6H452.894V160C452.894 165.6 453.627 170.467 455.094 174.6C456.694 178.733 459.16 181.933 462.494 184.2C465.96 186.333 470.294 187.4 475.494 187.4C481.094 187.4 485.494 186.267 488.694 184C492.027 181.6 494.36 178.333 495.694 174.2C497.027 170.067 497.694 165.333 497.694 160V102.6H522.094V161.6C522.094 178.133 517.96 190.267 509.694 198C501.56 205.6 490.16 209.4 475.494 209.4ZM593.5 209.4C582.7 209.4 573.367 207.2 565.5 202.8C557.767 198.4 551.767 192.133 547.5 184C543.367 175.867 541.3 166.333 541.3 155.4C541.3 144.333 543.433 134.8 547.7 126.8C551.967 118.667 557.967 112.333 565.7 107.8C573.433 103.267 582.7 101 593.5 101C604.167 101 613.367 103.267 621.1 107.8C628.833 112.333 634.767 118.733 638.9 127C643.033 135.133 645.1 144.733 645.1 155.8C645.1 166.6 643.033 176.067 638.9 184.2C634.9 192.2 629.033 198.4 621.3 202.8C613.567 207.2 604.3 209.4 593.5 209.4ZM593.3 187.2C599.967 187.2 605.3 185.733 609.3 182.8C613.433 179.867 616.433 176 618.3 171.2C620.167 166.4 621.1 161.2 621.1 155.6C621.1 150 620.167 144.733 618.3 139.8C616.433 134.867 613.433 130.933 609.3 128C605.3 124.933 599.967 123.4 593.3 123.4C586.633 123.4 581.233 124.933 577.1 128C572.967 130.933 569.967 134.867 568.1 139.8C566.233 144.6 565.3 149.867 565.3 155.6C565.3 161.2 566.233 166.467 568.1 171.4C570.1 176.2 573.1 180.067 577.1 183C581.233 185.8 586.633 187.2 593.3 187.2ZM710.636 208C702.103 208 695.036 206.867 689.436 204.6C683.969 202.333 679.836 198.667 677.036 193.6C674.369 188.533 673.036 181.733 673.036 173.2V124.2H656.836V102.6H673.036V73.2H697.436V102.6H722.036V124.2H697.436V170C697.436 175.333 698.369 179.4 700.236 182.2C702.103 185 706.303 186.4 712.836 186.4H721.236V208H710.636ZM738.269 208V102.6H760.469L761.869 116.4C764.535 112.4 767.535 109.333 770.869 107.2C774.335 104.933 778.002 103.333 781.869 102.4C785.869 101.467 789.869 101 793.869 101C795.335 101 796.669 101 797.869 101C799.202 101 800.269 101.067 801.069 101.2V124.4H794.669C787.735 124.4 781.869 125.733 777.069 128.4C772.269 131.067 768.669 134.867 766.269 139.8C763.869 144.733 762.669 150.8 762.669 158V208H738.269Z" fill="#0F172A"/>
<mask id="path-2-outside-1_1910_26834" maskUnits="userSpaceOnUse" x="86" y="45" width="142" height="159" fill="black">
<rect fill="white" x="86" y="45" width="142" height="159"/>
<path d="M91.375 128C91.375 109.2 96.575 93.2 106.975 80C117.375 66.4 131.175 57 148.375 51.8V72.8C124.775 83.6 112.975 102 112.975 128V198.8H91.375V128ZM165.775 128C165.775 109.2 170.975 93.2 181.375 80C191.775 66.4 205.575 57 222.775 51.8V72.8C199.175 83.6 187.375 102 187.375 128V198.8H165.775V128Z"/>
</mask>
<path d="M91.375 128C91.375 109.2 96.575 93.2 106.975 80C117.375 66.4 131.175 57 148.375 51.8V72.8C124.775 83.6 112.975 102 112.975 128V198.8H91.375V128ZM165.775 128C165.775 109.2 170.975 93.2 181.375 80C191.775 66.4 205.575 57 222.775 51.8V72.8C199.175 83.6 187.375 102 187.375 128V198.8H165.775V128Z" fill="#349989"/>
<path d="M106.975 80L110.902 83.0943L110.925 83.0659L110.947 83.0372L106.975 80ZM148.375 51.8H153.375V45.0648L146.928 47.0139L148.375 51.8ZM148.375 72.8L150.456 77.3465L153.375 76.0106V72.8H148.375ZM112.975 198.8V203.8H117.975V198.8H112.975ZM91.375 198.8H86.375V203.8H91.375V198.8ZM181.375 80L185.302 83.0943L185.325 83.0659L185.347 83.0372L181.375 80ZM222.775 51.8H227.775V45.0648L221.328 47.0139L222.775 51.8ZM222.775 72.8L224.856 77.3465L227.775 76.0106V72.8H222.775ZM187.375 198.8V203.8H192.375V198.8H187.375ZM165.775 198.8H160.775V203.8H165.775V198.8ZM96.375 128C96.375 110.182 101.28 95.3079 110.902 83.0943L103.048 76.9056C91.8704 91.092 86.375 108.218 86.375 128H96.375ZM110.947 83.0372C120.677 70.3135 133.573 61.4984 149.822 56.586L146.928 47.0139C128.777 52.5015 114.073 62.4865 103.003 76.9627L110.947 83.0372ZM143.375 51.8V72.8H153.375V51.8H143.375ZM146.294 68.2535C133.788 73.9766 124.124 81.8529 117.616 92.0008C111.109 102.148 107.975 114.227 107.975 128H117.975C117.975 115.773 120.741 105.652 126.034 97.3991C131.326 89.1471 139.362 82.4234 150.456 77.3465L146.294 68.2535ZM107.975 128V198.8H117.975V128H107.975ZM112.975 193.8H91.375V203.8H112.975V193.8ZM96.375 198.8V128H86.375V198.8H96.375ZM170.775 128C170.775 110.182 175.68 95.3079 185.302 83.0943L177.448 76.9056C166.27 91.092 160.775 108.218 160.775 128H170.775ZM185.347 83.0372C195.077 70.3135 207.973 61.4984 224.222 56.586L221.328 47.0139C203.177 52.5015 188.473 62.4865 177.403 76.9627L185.347 83.0372ZM217.775 51.8V72.8H227.775V51.8H217.775ZM220.694 68.2535C208.188 73.9766 198.524 81.8529 192.016 92.0008C185.509 102.148 182.375 114.227 182.375 128H192.375C192.375 115.773 195.141 105.652 200.434 97.3991C205.726 89.1471 213.762 82.4234 224.856 77.3465L220.694 68.2535ZM182.375 128V198.8H192.375V128H182.375ZM187.375 193.8H165.775V203.8H187.375V193.8ZM170.775 198.8V128H160.775V198.8H170.775Z" fill="#349989" mask="url(#path-2-outside-1_1910_26834)"/>
</g>
<defs>
<clipPath id="clip0_1910_26834">
<rect width="875" height="272" fill="white"/>
</clipPath>
</defs>
</svg>
